<svg width="64" height="64" viewBox="0 0 64 64" fill="none" xmlns="http://www.w3.org/2000/svg">
<g clip-path="url(#clip0_6550_248)">
<path d="M53 0H11C4.92487 0 0 4.92487 0 11V53C0 59.0751 4.92487 64 11 64H53C59.0751 64 64 59.0751 64 53V11C64 4.92487 59.0751 0 53 0Z" fill="#2C2C2E"/>
<path d="M54 20C54 14.477 49.523 10 44 10H32H20C14.477 10 10 14.477 10 20V44.008C10 49.531 14.477 54.008 20 54.008H32H44C49.523 54.008 54 49.531 54 44.008V20Z" fill="#3F3F3F"/>
<path opacity="0.3" d="M14.01 12H14C11.76 13.69 10.25 16.29 10.03 19.25C10.01 19.49 10 19.75 10 20V32C12.761 32 15 29.761 15 27V20C15 19.892 15.003 19.779 15.017 19.62C15.119 18.245 15.795 16.97 16.879 16.095C16.927 16.062 16.974 16.027 17.021 15.992C17.881 15.343 18.911 15 20 15H25C27.761 15 30 12.761 30 10H20C17.75 10 15.68 10.74 14.01 12Z" fill="#6B6B6B"/>
<path opacity="0.15" d="M54 44V22C51.239 22 49 24.238 49 27V44C49 46.757 46.757 49 44 49H39C36.239 49 34 51.238 34 54H44C49.523 54 54 49.523 54 44Z" fill="black"/>
<path d="M31.6447 19.0006C30.8008 19.0054 29.9544 19.0553 29.1008 19.1575C27.4686 19.3549 25.8509 19.683 24.2984 20.3844C21.8295 21.4995 20.0788 23.3922 19.571 26.1431C19.3558 27.3034 19.1817 28.4804 19.0825 29.6644C18.8915 31.9636 19.01 34.27 19.6725 36.5359C20.1949 38.3215 21.1573 39.9264 22.8427 40.9679C23.5561 41.4077 24.4967 41.6217 24.9876 41.8452C25.1254 41.9094 25.1593 41.9475 25.1665 41.957C25.1738 41.9641 25.1931 41.9807 25.1907 42.1234C25.1738 43.5785 25.1907 46.3937 25.1907 46.3937L25.1931 47H26.2982L26.4772 46.8288C26.4772 46.8288 29.2846 44.173 30.3002 43.0792C30.484 42.8843 30.5783 42.7749 30.5977 42.763C30.6146 42.7511 30.5856 42.744 30.7742 42.7392C32.1066 42.7131 33.4365 42.6631 34.7665 42.5918C36.5197 42.4967 38.3067 42.3326 40.0259 41.6265C41.5228 41.0107 42.7729 40.0049 43.5298 38.4975C44.3036 36.952 44.7171 35.3138 44.8719 33.6185C45.1282 30.7962 45.0387 27.9692 44.2456 25.1825C43.7789 23.5491 42.8407 22.1677 41.4019 21.1928C39.6802 20.0278 37.7384 19.5903 35.8377 19.3121C34.7278 19.1504 33.6106 19.0434 32.4886 19.0101C32.2081 19.003 31.9276 18.9982 31.6447 19.0006ZM32.4548 20.2275C33.5212 20.256 34.5876 20.3583 35.6564 20.5152C37.4893 20.7839 39.2183 21.1928 40.7006 22.1962C41.9024 23.0094 42.652 24.1078 43.0534 25.5083C43.7934 28.1142 43.8877 30.7843 43.6386 33.5115C43.496 35.0831 43.1163 36.5644 42.4175 37.9601C41.8009 39.1917 40.8384 39.974 39.5472 40.5042C38.0479 41.12 36.4181 41.2841 34.7012 41.3768C33.3858 41.4482 32.0679 41.4957 30.75 41.5219C30.4187 41.529 30.0947 41.6146 29.865 41.781C29.6352 41.9475 29.5313 42.102 29.3886 42.2542C28.6632 43.0341 27.2171 44.406 26.4288 45.1573C26.424 44.249 26.4167 43.1506 26.4288 42.1377C26.4336 41.8262 26.3611 41.5076 26.1797 41.2556C25.9984 41.0035 25.7493 40.8514 25.5099 40.742C24.8111 40.4234 23.897 40.1809 23.5004 39.936C22.1149 39.08 21.329 37.7961 20.8623 36.1983C20.2505 34.1083 20.1344 31.9565 20.3158 29.7667C20.4125 28.6302 20.5793 27.4913 20.7897 26.3619C21.2298 23.9818 22.613 22.4839 24.8135 21.49C26.2039 20.8623 27.6886 20.5532 29.2532 20.3654C30.3196 20.237 31.386 20.1966 32.4548 20.2275ZM32.7159 23.2614C32.2057 23.2614 31.71 23.3185 31.2288 23.4231C30.8975 23.4992 30.6871 23.8249 30.7621 24.153C30.8371 24.4811 31.1708 24.6856 31.5045 24.6119C31.8938 24.5239 32.3 24.4788 32.7159 24.4788C35.7386 24.4788 38.1761 26.8754 38.1761 29.8451C38.1761 30.2565 38.1301 30.6559 38.0407 31.0411C37.9657 31.3669 38.1737 31.695 38.5074 31.7687C38.8411 31.8424 39.1723 31.6355 39.2473 31.3074C39.3561 30.8366 39.4142 30.3492 39.4142 29.8451C39.4142 26.2168 36.4084 23.2614 32.7159 23.2614ZM26.54 24.4811C26.4385 24.4764 26.3345 24.4835 26.2257 24.5073C25.1012 24.7522 23.9841 25.5535 23.9526 26.9848C23.9841 27.1845 23.9817 27.3985 24.0566 27.5792C24.4242 28.4637 24.7434 29.3767 25.2028 30.2137C27.4396 34.2795 30.8225 37.1065 35.1341 38.9017C35.6491 39.1157 36.1811 39.1608 36.701 38.9468C37.4168 38.6544 38.0237 38.2026 38.4276 37.5535C38.9813 36.6619 38.9886 36.0437 38.0769 35.3851C37.4797 34.9524 36.8921 34.5077 36.2875 34.0845C35.3662 33.4426 34.3699 33.3308 33.6832 34.4578C33.6469 34.5149 33.5937 34.5624 33.5478 34.61C33.1947 34.9785 32.7619 35.0689 32.3024 34.8834C30.559 34.1773 29.2121 33.0384 28.3996 31.3431C27.9208 30.3468 28.0514 29.8475 28.9461 29.1842C29.0355 29.12 29.1202 29.051 29.2024 28.9773C29.5941 28.6254 29.6981 28.2069 29.466 27.7338C28.9412 26.6543 28.2424 25.6914 27.3574 24.8616C27.118 24.6381 26.8447 24.4978 26.54 24.4811ZM32.7063 25.0874C32.433 25.0874 32.1622 25.1088 31.8962 25.154C31.6713 25.1825 31.4803 25.33 31.3981 25.5368C31.3158 25.7461 31.357 25.9814 31.502 26.1526C31.6495 26.3214 31.8817 26.3999 32.1042 26.3524C32.2976 26.3214 32.5007 26.3048 32.7063 26.3048C34.7182 26.3048 36.3335 27.8931 36.3335 29.8713C36.3335 30.0734 36.3165 30.2731 36.2851 30.4633C36.2367 30.6821 36.3165 30.9103 36.4882 31.0554C36.6623 31.198 36.9017 31.2385 37.1145 31.1576C37.3249 31.0768 37.4748 30.8889 37.5038 30.6678C37.5498 30.4063 37.5715 30.14 37.5715 29.8713C37.5715 27.2369 35.3856 25.0874 32.7063 25.0874ZM32.6192 26.9135C32.3967 26.9111 32.1888 27.0252 32.0751 27.2155C31.9639 27.4057 31.9639 27.6387 32.0751 27.8289C32.1888 28.0191 32.3967 28.1332 32.6192 28.1309C33.6518 28.1309 34.4763 28.9416 34.4763 29.9569C34.4739 30.1756 34.59 30.3801 34.7834 30.4919C34.9769 30.6012 35.2139 30.6012 35.4073 30.4919C35.6008 30.3801 35.7168 30.1756 35.7144 29.9569C35.7144 28.283 34.3216 26.9135 32.6192 26.9135Z" fill="white"/>
</g>
<defs>
<clipPath id="clip0_6550_248">
<rect width="64" height="64" fill="white"/>
</clipPath>
</defs>
</svg>
