<svg width="64" height="64" viewBox="0 0 64 64" fill="none" xmlns="http://www.w3.org/2000/svg">
<g clip-path="url(#clip0_6550_234)">
<path d="M53 0H11C4.92487 0 0 4.92487 0 11V53C0 59.0751 4.92487 64 11 64H53C59.0751 64 64 59.0751 64 53V11C64 4.92487 59.0751 0 53 0Z" fill="#2C2C2E"/>
<path d="M54 20C54 14.477 49.523 10 44 10H32H20C14.477 10 10 14.477 10 20V44.008C10 49.531 14.477 54.008 20 54.008H32H44C49.523 54.008 54 49.531 54 44.008V20Z" fill="#3F3F3F"/>
<path opacity="0.3" d="M14.01 12H14C11.76 13.69 10.25 16.29 10.03 19.25C10.01 19.49 10 19.75 10 20V32C12.761 32 15 29.761 15 27V20C15 19.892 15.003 19.779 15.017 19.62C15.119 18.245 15.795 16.97 16.879 16.095C16.927 16.062 16.974 16.027 17.021 15.992C17.881 15.343 18.911 15 20 15H25C27.761 15 30 12.761 30 10H20C17.75 10 15.68 10.74 14.01 12Z" fill="#6B6B6B"/>
<path opacity="0.15" d="M54 44V22C51.239 22 49 24.238 49 27V44C49 46.757 46.757 49 44 49H39C36.239 49 34 51.238 34 54H44C49.523 54 54 49.523 54 44Z" fill="black"/>
<path d="M44.929 24.319C44.981 24.128 45.005 23.95 44.999 23.792C44.982 23.333 44.702 23 44.042 23H41.097C40.353 23 40.01 23.507 39.81 24.015C39.81 24.015 37.974 28.27 35.858 31.075C35.172 31.887 34.823 31.867 34.452 31.867C34.253 31.867 33.75 31.596 33.75 30.852V24.284C33.75 23.405 33.555 23 32.927 23H27.697C27.238 23 27 23.405 27 23.812C27 24.657 28.01 24.86 28.125 27.227V31.816C28.125 32.931 27.953 33.133 27.582 33.133C26.581 33.133 24.61 29.333 23.29 24.352C23.004 23.372 22.718 23 21.975 23H19.002C18.143 23 18 23.474 18 23.98C18 24.893 18.675 29.831 22.359 35.508C25.031 39.625 28.551 42 31.667 42C33.555 42 33.748 41.459 33.748 40.614V36.85C33.749 35.835 33.955 35.667 34.556 35.667C34.985 35.667 35.859 35.984 37.546 38.2C39.492 40.756 39.845 42 40.961 42H43.906C44.59 42 44.983 41.677 44.998 41.05C45.001 40.89 44.981 40.712 44.935 40.513C44.717 39.783 43.716 38 42.467 36.3C41.775 35.359 41.092 34.427 40.778 33.92C40.568 33.589 40.488 33.356 40.498 33.133C40.508 32.899 40.616 32.676 40.778 32.364C40.751 32.364 44.558 26.347 44.929 24.319Z" fill="white"/>
</g>
<defs>
<clipPath id="clip0_6550_234">
<rect width="64" height="64" fill="white"/>
</clipPath>
</defs>
</svg>
